<svg id="Capa_1" data-name="Capa 1" xmlns="http://www.w3.org/2000/svg" viewBox="0 0 36 36"><defs><style>.cls-1{fill:#7d6e65;stroke:#7d6e65;stroke-miterlimit:10;stroke-width:0.5px;}</style></defs><path class="cls-1" d="M20.44,10.16A8.51,8.51,0,0,0,18.6,9a19.23,19.23,0,0,0-8.13-2.21.6.6,0,0,0-.61.44,19.18,19.18,0,0,0-.56,8.45h0a4.92,4.92,0,0,0,.3,1.4,15.61,15.61,0,0,0,2.27,5s.24.35.76,1a17.46,17.46,0,0,0,12.89,6.13h0a.61.61,0,0,0,.6-.44,17.53,17.53,0,0,0-1.51-14.06,11,11,0,0,0-.83-1.23h0A15.56,15.56,0,0,0,20.44,10.16Z"/></svg>