<svg id="Capa_1" data-name="Capa 1" xmlns="http://www.w3.org/2000/svg" xmlns:xlink="http://www.w3.org/1999/xlink" viewBox="0 0 65 65"><defs><style>.cls-1{fill:none;}.cls-2{clip-path:url(#clip-path);}.cls-3{fill:url(#Degradado_sin_nombre_3431);}</style><clipPath id="clip-path"><path class="cls-1" d="M11.79,5.76A48.09,48.09,0,0,0,10.39,27h0a12.9,12.9,0,0,0,.74,3.51A39.64,39.64,0,0,0,16.83,43s.6.88,1.9,2.56c7.51,9.2,18.89,14.65,32.36,15.39h0a1.5,1.5,0,0,0,1.5-1.1c3.66-12.83,2.3-25.24-3.79-35.29a23.76,23.76,0,0,0-2.08-3.09,39.35,39.35,0,0,0-8.42-8.33,21.55,21.55,0,0,0-4.62-2.9A48,48,0,0,0,13.33,4.67H13.2a1.48,1.48,0,0,0-1.41,1.1"/></clipPath><linearGradient id="Degradado_sin_nombre_3431" x1="-642.92" y1="2422.22" x2="-640.41" y2="2422.22" gradientTransform="matrix(52.6, 0, 0, -52.6, 33746.74, 127448.64)" gradientUnits="userSpaceOnUse"><stop offset="0" stop-color="#a49674"/><stop offset="1" stop-color="#faf1d0"/></linearGradient></defs><g class="cls-2"><rect class="cls-3" x="5.76" y="1.82" width="54.02" height="61.99" transform="translate(-4.03 4.59) rotate(-7.56)"/></g></svg>